<svg width="1839" height="1022" viewBox="0 0 1839 1022" fill="none" xmlns="http://www.w3.org/2000/svg">
<path d="M33.7071 247.449C243.308 -78.9683 514.207 178.122 514.207 178.122C514.207 178.122 534.524 78.8103 704.207 54.3283C869.594 30.466 932.207 125.449 932.207 125.449C880.308 -39.9683 1388.71 2.53179 1388.71 89.9489C1388.69 0.942505 1476.81 -5.46833 1801.31 2.53179C1855.81 13.0318 1850.81 231.532 1787.31 231.532C1785.8 265.513 1791.11 291.058 1787.31 329.032C1842.05 358.344 1820.81 524.032 1787.31 535.532C1811.92 536.778 1774.03 888.797 1755.81 924.032C1725.31 983.032 1573.81 948.032 1552.31 898.032C1527.81 971.532 1354.55 968.615 1325.81 912.532C1302.11 971.917 1116.6 1004.14 1018.81 948.032C1004.47 1009.47 406.387 1021.77 397.308 1021.53C329.308 1005.03 367.308 826.032 367.308 826.032C319.195 865.002 293.297 863.086 247.809 844.532C247.809 844.532 152.308 884.532 93.8086 874.532C56.8086 864.532 45.8086 838.532 45.8086 838.532C45.8086 838.532 33.7071 753.032 33.7073 665.532C50.8086 612.532 152.308 618.532 152.308 618.532C152.308 618.532 -86.1916 495.032 33.7071 247.449Z" fill="#020024"/>
<path d="M464.105 263.394C445.717 216.46 414.656 178.457 376.015 155.616C337.374 132.776 293.448 126.454 251.438 137.688C209.428 148.921 171.829 177.044 144.806 217.443C117.783 257.842 93.0698 289.367 92.8413 341.279C62.1735 589.995 385.206 691.722 480.326 455.459L364.629 403.511C356.687 423.237 343.426 439.122 327.018 448.56C310.611 457.999 292.032 460.432 274.329 455.459C256.625 450.487 240.848 438.404 229.583 421.193C218.318 403.982 212.236 382.664 212.332 360.734C212.429 338.805 218.699 317.566 230.114 300.5C241.53 283.434 257.413 271.554 275.159 266.809C292.905 262.063 311.462 264.734 327.785 274.382C344.108 284.031 357.229 300.085 364.997 319.911L464.105 263.394Z" fill="#DE4D26"/>
<path d="M472.579 247.201C452.96 200.242 419.821 162.218 378.594 139.366C337.368 116.514 290.502 110.189 245.681 121.428C200.86 132.668 160.745 160.805 131.914 201.225C103.082 241.645 87.2466 291.95 87.0029 343.889C86.7591 395.829 102.122 446.321 130.572 487.085C159.022 527.849 198.871 556.466 243.584 568.244C288.297 580.021 335.22 574.259 376.658 551.904C418.097 529.548 451.592 491.925 471.65 445.205L366.446 387.391C357.973 407.127 343.824 423.02 326.319 432.464C308.814 441.908 288.992 444.342 270.103 439.367C251.215 434.391 234.382 422.303 222.363 405.082C210.345 387.862 203.855 366.533 203.958 344.592C204.061 322.651 210.751 301.4 222.93 284.326C235.109 267.251 252.055 255.365 270.989 250.617C289.923 245.869 309.721 248.541 327.136 258.194C344.552 267.848 358.551 283.91 366.839 303.747L472.579 247.201Z" fill="url(#paint0_linear_10_368)"/>
<path d="M1466.54 93.1639L1788 79L1778.99 180.677L1615.25 188.265L1606.24 256.049L1743.44 245.426V337.492L1582.71 343.056L1574.69 408.817H1766.97L1760.46 511H1439L1466.54 93.1639Z" fill="url(#paint1_linear_10_368)"/>
<path d="M1467.5 75L1788.5 61L1779.5 161.5L1616 169L1612 235L1744 225.5V316.5L1586 323.5L1579 387H1767.5L1761 488H1440L1467.5 75Z" fill="url(#paint2_linear_10_368)"/>
<path d="M103 675.5L189 666C237 658.5 242 724.5 209 734.999C251.5 734.999 254 803 206 808L108.5 818.499L103 675.5Z" fill="#75EEFD"/>
<path d="M285.5 747L230.5 663.5L276.5 661L306 716L333 655L377.5 652L329 743.5V800H288L285.5 747Z" fill="#75EEFD"/>
<path d="M141.996 697.119L180.978 693.101C186.751 692.506 191.816 696.934 191.998 702.735L192.3 712.36C192.468 717.694 188.417 722.22 183.097 722.642L142.733 725.847L141.996 697.119Z" fill="#020024"/>
<path d="M143.185 757.868L186.145 753.793C191.843 753.252 196.832 757.596 197.08 763.314L197.582 774.872C197.815 780.246 193.755 784.842 188.393 785.273L143.98 788.848L143.185 757.868Z" fill="#020024"/>
<path d="M426 633.5H539V879.5L695.5 862.5L702 957L431.5 977.5L426 633.5Z" fill="#2380D9"/>
<path d="M426 633.5L526.429 626L541.5 877L685 862.5V953L431.5 970.5L426 633.5Z" fill="white"/>
<path d="M721.994 619.829L982.348 599L978.013 682L826.513 692.5L826.513 739L961 722.5L965.5 803L826.513 814.5L826.513 867L982.347 858.187L982.347 934L721.993 953.5L721.994 619.829Z" fill="url(#paint3_linear_10_368)"/>
<path d="M721.648 603.312L981.996 582.346L977.746 666.963L826.249 677.511L826.297 724.919L957.294 714.86L957.375 794.383L826.375 801.894L826.429 855.419L982.263 846.595L982.341 923.889L721.993 943.501L721.648 603.312Z" fill="url(#paint4_linear_10_368)"/>
<path d="M1184.5 575C1286.4 575 1369 653.574 1369 750.5C1369 847.426 1286.4 926 1184.5 926C1082.6 926 1000 847.426 1000 750.5C1000 653.574 1082.6 575 1184.5 575ZM1197.62 671.162C1156.49 664.445 1117.29 694.842 1110.07 739.055C1102.85 783.268 1130.35 824.554 1171.48 831.271C1212.61 837.988 1251.81 807.592 1259.03 763.379C1266.25 719.166 1238.76 677.879 1197.62 671.162Z" fill="url(#paint5_linear_10_368)"/>
<path d="M1184.5 557C1286.4 557 1369 635.574 1369 732.5C1369 829.426 1286.4 908 1184.5 908C1082.6 908 1000 829.426 1000 732.5C1000 635.574 1082.6 557 1184.5 557ZM1197.62 653.162C1156.49 646.445 1117.29 676.842 1110.07 721.055C1102.85 765.268 1130.35 806.554 1171.48 813.271C1212.61 819.988 1251.81 789.592 1259.03 745.379C1266.25 701.166 1238.76 659.879 1197.62 653.162Z" fill="white"/>
<path d="M1406.87 574L1501.6 571.255L1628.08 731L1641.4 564H1752L1720.76 902H1628.08L1501.6 745L1493.41 902H1391L1406.87 574Z" fill="#2389D5"/>
<path d="M1406 559L1498.5 556.255L1622 716L1635 549H1743L1712.5 887H1622L1498.5 730L1490.5 887H1390.5L1406 559Z" fill="white"/>
<path d="M726 105C843.637 105 939 206.184 939 331C939 455.816 843.637 557 726 557C608.363 557 513 455.816 513 331C513 206.184 608.363 105 726 105ZM725.5 225C672.757 225 630 272.682 630 331.5C630 390.318 672.757 438 725.5 438C778.243 438 821 390.318 821 331.5C821 272.682 778.243 225 725.5 225Z" fill="url(#paint6_linear_10_368)"/>
<path d="M821.5 329.5C809.5 217.5 643.224 175.694 631.224 352.194C611.725 177.194 830.999 176.5 821.5 329.5Z" fill="url(#paint7_linear_10_368)"/>
<path d="M1016 144.939C1016.19 144.906 1394.09 78.6498 1384.83 307.395C1372.85 603.456 1016.16 529.401 1016 529.368V144.939ZM1287.79 315.564C1292.22 189.435 1111.64 225.946 1111.5 225.975V437.977C1111.59 437.999 1282.07 478.825 1287.79 315.564Z" fill="url(#paint8_linear_10_368)"/>
<path d="M1012 114.162C1012.15 114.136 1400 46.207 1390.5 280.662C1378.2 584.162 1012 508.162 1012 508.162V114.162ZM1290.92 289.035C1295.46 159.763 1110.14 197.187 1110 197.215V414.495C1110 414.495 1285.04 456.407 1290.92 289.035Z" fill="url(#paint9_linear_10_368)"/>
<defs>
<linearGradient id="paint0_linear_10_368" x1="289.5" y1="116" x2="289.5" y2="574.211" gradientUnits="userSpaceOnUse">
<stop stop-color="#FEC536"/>
<stop offset="1" stop-color="#FD743E"/>
</linearGradient>
<linearGradient id="paint1_linear_10_368" x1="1613.5" y1="79" x2="1613.5" y2="511" gradientUnits="userSpaceOnUse">
<stop stop-color="#E14936"/>
</linearGradient>
<linearGradient id="paint2_linear_10_368" x1="1614.25" y1="61" x2="1614.25" y2="488" gradientUnits="userSpaceOnUse">
<stop stop-color="#FEC536"/>
<stop offset="1" stop-color="#FD743E"/>
</linearGradient>
<linearGradient id="paint3_linear_10_368" x1="854.293" y1="601.856" x2="871.956" y2="935.389" gradientUnits="userSpaceOnUse">
<stop stop-color="#2D8DDB"/>
</linearGradient>
<linearGradient id="paint4_linear_10_368" x1="853.936" y1="585.126" x2="871.945" y2="925.19" gradientUnits="userSpaceOnUse">
<stop stop-color="white"/>
</linearGradient>
<linearGradient id="paint5_linear_10_368" x1="1184.5" y1="575" x2="1184.5" y2="926" gradientUnits="userSpaceOnUse">
<stop stop-color="#237DD1"/>
</linearGradient>
<linearGradient id="paint6_linear_10_368" x1="726" y1="105" x2="726" y2="557" gradientUnits="userSpaceOnUse">
<stop stop-color="#FEC536"/>
<stop offset="1" stop-color="#FD743E"/>
</linearGradient>
<linearGradient id="paint7_linear_10_368" x1="726.262" y1="217" x2="726.262" y2="352.194" gradientUnits="userSpaceOnUse">
<stop stop-color="#DE4D26"/>
<stop offset="1" stop-color="#782A15"/>
</linearGradient>
<linearGradient id="paint8_linear_10_368" x1="1200.5" y1="136" x2="1200.5" y2="537.625" gradientUnits="userSpaceOnUse">
<stop stop-color="#E22428"/>
</linearGradient>
<linearGradient id="paint9_linear_10_368" x1="1201.34" y1="105" x2="1201.34" y2="516.625" gradientUnits="userSpaceOnUse">
<stop stop-color="#FEC536"/>
<stop offset="1" stop-color="#FD743E"/>
</linearGradient>
</defs>
</svg>
