<svg width="929" height="942" viewBox="0 0 929 942" fill="none" xmlns="http://www.w3.org/2000/svg">
<path d="M161.37 124.734C87.1642 195.176 37.669 288.905 20.5938 391.322L44.0864 395.474C60.272 298.392 107.188 209.546 177.528 142.775L161.37 124.734Z" fill="white"/>
<path d="M28.2356 587.58C43.1063 647.508 69.2968 703.834 105.312 753.342C141.327 802.849 186.46 844.569 238.137 876.119C289.813 907.669 347.019 928.431 406.489 937.221C465.959 946.01 526.528 942.654 584.739 927.345L578.839 903.569C523.661 918.081 466.248 921.262 409.876 912.93C353.504 904.599 299.279 884.918 250.295 855.012C201.311 825.106 158.529 785.56 124.39 738.631C90.2519 691.703 65.426 638.312 51.3301 581.506L28.2356 587.58Z" fill="#010101"/>
<path d="M708.528 873.858C753.808 845.621 793.984 809.508 827.268 767.125L808.732 751.697C777.183 791.871 739.1 826.103 696.179 852.869L708.528 873.858Z" fill="#4D6C6A"/>
<path d="M779.537 122.759C710.767 58.2862 624.543 16.9241 532.359 4.18623C440.174 -8.55162 346.407 7.93995 263.559 51.4626L274.393 73.3209C352.925 32.0658 441.806 16.4335 529.188 28.5077C616.57 40.5819 698.301 79.789 763.488 140.903L779.537 122.759Z" fill="#00A92D"/>
<path d="M888.892 663.853C922.471 586.824 935.321 501.919 926.097 418.025C916.873 334.13 885.914 254.331 836.46 186.978L817.445 201.776C864.322 265.619 893.669 341.261 902.412 420.785C911.156 500.308 898.975 580.79 867.145 653.805L888.892 663.853Z" fill="#FF0404"/>
<path d="M686.177 339.972C659.134 292.568 617.818 255.51 568.477 234.403C519.136 213.295 464.453 209.286 412.699 222.981C360.946 236.677 314.936 267.332 281.628 310.311C248.32 353.29 229.527 406.255 228.089 461.195L230.761 461.269C232.183 406.925 250.772 354.536 283.718 312.024C316.664 269.512 362.174 239.19 413.365 225.643C464.557 212.097 518.645 216.062 567.45 236.941C616.256 257.819 657.123 294.474 683.872 341.363L686.177 339.972Z" fill="#04FF47"/>
<path d="M394.291 711.046C438.549 726.2 486.084 728.101 531.353 716.526C576.622 704.951 617.758 680.378 649.963 645.672C682.168 610.967 704.114 567.559 713.243 520.513C722.372 473.466 718.307 424.72 701.521 379.96L699.226 380.87C715.844 425.183 719.868 473.442 710.831 520.018C701.793 566.593 680.066 609.567 648.183 643.925C616.3 678.284 575.576 702.612 530.76 714.071C485.944 725.53 438.883 723.648 395.068 708.645L394.291 711.046Z" fill="#04FF47"/>
<path d="M234.231 527.58C248.203 590.208 284.822 645.022 336.655 680.897L341.234 673.9C291.129 639.221 255.73 586.234 242.224 525.694L234.231 527.58Z" fill="#04FF47"/>
<circle cx="195.5" cy="111.5" r="17.5" fill="black"/>
<circle cx="868.5" cy="689.5" r="17.5" fill="white"/>
<circle cx="590.5" cy="913.5" r="17.5" fill="#010101"/>
<circle cx="31.5" cy="425.5" r="17.5" fill="black"/>
<circle cx="31.5" cy="549.5" r="17.5" fill="white"/>
<circle cx="237.5" cy="82.5004" r="24.5" fill="#FF0404"/>
<circle cx="649.5" cy="895.5" r="24.5" fill="#FF0404"/>
<circle cx="838.5" cy="731.5" r="24.5" fill="#00A92D"/>
<circle cx="800.5" cy="161.5" r="24.5" fill="#010101"/>
<circle cx="24.5" cy="487.5" r="24.5" fill="#FF0404"/>
<path d="M474 76.0004C687.669 76.0004 861 259.2 861 473C861 686.735 687.734 860 474 860C260.331 860 87 676.801 87 463C87 249.266 260.266 76.0004 474 76.0004Z" stroke="black" stroke-width="4"/>
<circle cx="238" cy="522" r="7" fill="white"/>
<circle cx="228" cy="456" r="7" fill="black"/>
<circle cx="234" cy="419" r="7" fill="#FF0404"/>
<circle cx="325" cy="267" r="7" fill="black"/>
<circle cx="700" cy="379" r="7" fill="black"/>
<circle cx="308" cy="353" r="7" fill="black"/>
<circle cx="625" cy="521" r="7" fill="black"/>
<circle cx="553" cy="562" r="14" fill="black"/>
<circle cx="404" cy="567" r="27" fill="black"/>
<circle cx="669" cy="316" r="7" fill="white"/>
<circle cx="321" cy="411" r="7" fill="black"/>
<circle cx="396" cy="711" r="7" fill="black"/>
<circle cx="407" cy="662" r="7" fill="white"/>
<circle cx="434" cy="720" r="7" fill="black"/>
<circle cx="252" cy="570" r="11" fill="black"/>
<circle cx="568" cy="703" r="11" fill="black"/>
<circle cx="685" cy="604" r="11" fill="black"/>
<circle cx="685" cy="343" r="11" fill="#FF0404"/>
<circle cx="646" cy="580" r="11" fill="black"/>
<circle cx="568" cy="291" r="11" fill="black"/>
<circle cx="590" cy="363" r="11" fill="black"/>
<circle cx="355" cy="249" r="11" fill="white"/>
<path d="M654.465 375.877C633.462 336.032 599.864 304.258 558.91 285.511C517.955 266.764 471.948 262.097 428.064 272.24C384.179 282.382 344.885 306.762 316.31 341.579C287.735 376.395 271.486 419.69 270.097 464.709C268.708 509.729 282.257 553.943 308.632 590.455C335.006 626.966 372.722 653.723 415.898 666.551C459.074 679.38 505.281 677.558 547.313 661.371C589.345 645.185 624.839 615.542 648.257 577.068L645.334 575.289C622.308 613.118 587.41 642.263 546.083 658.178C504.756 674.093 459.324 675.884 416.873 663.271C374.421 650.658 337.338 624.35 311.406 588.451C285.474 552.552 272.152 509.079 273.518 464.815C274.883 420.55 290.86 377.982 318.956 343.75C347.051 309.518 385.686 285.546 428.834 275.574C471.983 265.602 517.218 270.19 557.485 288.623C597.753 307.055 630.787 338.296 651.437 377.473L654.465 375.877Z" fill="#2B2626"/>
<path d="M627.568 519.234C638.612 483.865 637.315 445.793 623.89 411.258C610.464 376.723 585.706 347.772 553.672 329.15C521.638 310.527 484.229 303.338 447.575 308.76C410.921 314.182 377.195 331.894 351.925 358.993C326.654 386.091 311.338 420.97 308.485 457.913C305.633 494.856 315.413 531.673 336.224 562.33C357.035 592.987 387.642 615.666 423.029 626.65C458.417 637.635 496.486 636.274 530.999 622.79L530.001 620.235C496.067 633.493 458.636 634.831 423.842 624.031C389.049 613.231 358.955 590.932 338.493 560.789C318.032 530.647 308.415 494.448 311.22 458.124C314.025 421.801 329.084 387.507 353.931 360.863C378.777 334.219 411.937 316.805 447.976 311.474C484.016 306.143 520.797 313.211 552.294 331.521C583.79 349.831 608.133 378.296 621.333 412.252C634.534 446.208 635.809 483.641 624.95 518.416L627.568 519.234Z" fill="#2B2626"/>
<path d="M584.746 410.401C572.302 387.249 553.032 368.489 529.555 356.67C506.077 344.851 479.53 340.547 453.521 344.341C427.512 348.136 403.301 359.846 384.179 377.88C365.057 395.914 351.95 419.397 346.64 445.14C341.329 470.882 344.073 497.636 354.497 521.765C364.921 545.894 382.521 566.229 404.906 580.006C427.29 593.784 453.373 600.337 479.611 598.774C505.849 597.211 530.97 587.608 551.56 571.271L543.022 560.51C524.641 575.094 502.216 583.666 478.794 585.061C455.372 586.456 432.088 580.607 412.106 568.308C392.124 556.009 376.413 537.856 367.107 516.317C357.802 494.777 355.353 470.895 360.093 447.915C364.834 424.935 376.534 403.972 393.604 387.873C410.674 371.775 432.286 361.322 455.504 357.934C478.722 354.547 502.42 358.389 523.378 368.94C544.336 379.49 561.538 396.237 572.646 416.904L584.746 410.401Z" fill="#2B2626"/>
<path d="M570.261 291.325C537.597 281.048 502.293 283.144 471.075 297.214C439.856 311.285 414.903 336.346 400.967 367.625L403.105 368.577C416.806 337.823 441.341 313.182 472.036 299.348C502.731 285.514 537.442 283.453 569.559 293.558L570.261 291.325Z" fill="#2B2626"/>
<path d="M347.717 479.588C331.969 512.161 329.491 549.577 340.808 583.942C352.124 618.306 376.349 646.93 408.369 663.772L409.458 661.701C377.975 645.141 354.157 616.998 343.031 583.21C331.904 549.422 334.34 512.633 349.824 480.607L347.717 479.588Z" fill="#2B2626"/>
<path d="M395.879 570.973C407.368 601.051 428.907 626.229 456.844 642.236C484.781 658.243 517.395 664.093 549.154 658.795L548.769 656.486C517.543 661.696 485.476 655.944 458.008 640.205C430.539 624.467 409.361 599.711 398.065 570.138L395.879 570.973Z" fill="#2B2626"/>
<path d="M400.237 366.257C378.77 369.239 358.293 377.182 340.431 389.455C322.568 401.729 307.811 417.995 297.329 436.965C286.848 455.935 280.93 477.086 280.046 498.741C279.162 520.396 283.336 541.959 292.237 561.72L294.37 560.758C285.619 541.329 281.515 520.128 282.384 498.836C283.254 477.545 289.072 456.748 299.377 438.097C309.683 419.445 324.193 403.452 341.756 391.384C359.319 379.316 379.452 371.507 400.559 368.575L400.237 366.257Z" fill="#2B2626"/>
<circle cx="442" cy="630" r="7" fill="#00A92D"/>
<circle cx="533" cy="620" r="7" fill="#010101"/>
<circle cx="293" cy="556" r="11" fill="#FF0404"/>
<circle cx="342" cy="680" r="7" fill="black"/>
<circle cx="406" cy="371" r="13" fill="#FF0404"/>
<circle cx="554" cy="657" r="11" fill="#FF0404"/>
</svg>
