<svg width="1702" height="917" viewBox="0 0 1702 917" fill="none" xmlns="http://www.w3.org/2000/svg">
<path d="M377.105 202.394C358.717 155.46 327.656 117.457 289.015 94.6163C250.374 71.776 206.448 65.4543 164.438 76.6879C122.428 87.9214 84.8286 116.044 57.8057 156.443C30.7828 196.842 6.06976 228.367 5.8413 280.279C-24.8265 528.995 298.206 630.722 393.326 394.459L277.629 342.511C269.687 362.237 256.426 378.122 240.018 387.56C223.611 396.999 205.032 399.432 187.329 394.459C169.625 389.487 153.848 377.404 142.583 360.193C131.318 342.982 125.236 321.664 125.332 299.734C125.429 277.805 131.699 256.565 143.114 239.5C154.53 222.434 170.413 210.554 188.159 205.809C205.905 201.063 224.462 203.734 240.785 213.382C257.108 223.031 270.229 239.084 277.997 258.911L377.105 202.394Z" fill="#DE4D26"/>
<path d="M385.579 186.201C365.96 139.242 332.821 101.218 291.594 78.3661C250.368 55.5138 203.502 49.1888 158.681 60.4283C113.86 71.6678 73.7447 99.8046 44.9135 140.225C16.0824 180.645 0.246602 230.95 0.00285424 282.889C-0.240893 334.829 15.1219 385.321 43.572 426.085C72.0221 466.849 111.871 495.466 156.584 507.244C201.297 519.021 248.22 513.259 289.658 490.904C331.097 468.548 364.592 430.925 384.65 384.205L279.446 326.391C270.973 346.127 256.824 362.02 239.319 371.464C221.814 380.908 201.992 383.342 183.103 378.367C164.215 373.391 147.382 361.303 135.363 344.082C123.345 326.862 116.855 305.533 116.958 283.592C117.061 261.651 123.751 240.4 135.93 223.326C148.109 206.251 165.055 194.365 183.989 189.617C202.923 184.869 222.721 187.541 240.136 197.194C257.552 206.848 271.551 222.91 279.839 242.747L385.579 186.201Z" fill="url(#paint0_linear_6_130)"/>
<path d="M1379.54 32.1639L1701 18L1691.99 119.677L1528.25 127.265L1519.24 195.049L1656.44 184.426V276.492L1495.71 282.056L1487.69 347.817H1679.97L1673.46 450H1352L1379.54 32.1639Z" fill="url(#paint1_linear_6_130)"/>
<path d="M1380.5 14L1701.5 0L1692.5 100.5L1529 108L1525 174L1657 164.5V255.5L1499 262.5L1492 326H1680.5L1674 427H1353L1380.5 14Z" fill="url(#paint2_linear_6_130)"/>
<path d="M16 614.5L102 605C150 597.5 155 663.5 122 674C164.5 674 167 742 119 747L21.5 757.5L16 614.5Z" fill="#75EEFD"/>
<path d="M198.5 686L143.5 602.5L189.5 600L219 655L246 594L290.5 591L242 682.5V739H201L198.5 686Z" fill="#75EEFD"/>
<path d="M54.996 636.119L93.9779 632.102C99.7508 631.507 104.816 635.935 104.998 641.735L105.3 651.36C105.468 656.694 101.417 661.22 96.0968 661.642L55.7332 664.847L54.996 636.119Z" fill="#020024"/>
<path d="M56.1847 696.868L99.1447 692.793C104.843 692.252 109.832 696.596 110.08 702.314L110.582 713.872C110.815 719.246 106.755 723.842 101.393 724.273L56.9796 727.849L56.1847 696.868Z" fill="#020024"/>
<path d="M339 572.5H452V818.5L608.5 801.5L615 896L344.5 916.5L339 572.5Z" fill="#2380D9"/>
<path d="M339 572.5L439.429 565L454.5 816L598 801.5V892L344.5 909.5L339 572.5Z" fill="white"/>
<path d="M634.994 558.828L895.348 538L891.013 621L739.513 631.5L739.513 678L874 661.5L878.5 742L739.513 753.5L739.513 806L895.347 797.187L895.347 873L634.993 892.5L634.994 558.828Z" fill="url(#paint3_linear_6_130)"/>
<path d="M634.648 542.312L894.996 521.346L890.746 605.963L739.249 616.511L739.297 663.919L870.294 653.859L870.375 733.383L739.375 740.894L739.429 794.419L895.263 785.595L895.341 862.889L634.993 882.5L634.648 542.312Z" fill="url(#paint4_linear_6_130)"/>
<path d="M1097.5 514C1199.4 514 1282 592.574 1282 689.5C1282 786.426 1199.4 865 1097.5 865C995.603 865 913 786.426 913 689.5C913 592.574 995.603 514 1097.5 514ZM1110.62 610.162C1069.49 603.445 1030.29 633.842 1023.07 678.055C1015.85 722.268 1043.35 763.554 1084.48 770.271C1125.61 776.988 1164.81 746.592 1172.03 702.379C1179.25 658.166 1151.76 616.879 1110.62 610.162Z" fill="url(#paint5_linear_6_130)"/>
<path d="M1097.5 496C1199.4 496 1282 574.574 1282 671.5C1282 768.426 1199.4 847 1097.5 847C995.603 847 913 768.426 913 671.5C913 574.574 995.603 496 1097.5 496ZM1110.62 592.162C1069.49 585.445 1030.29 615.842 1023.07 660.055C1015.85 704.268 1043.35 745.554 1084.48 752.271C1125.61 758.988 1164.81 728.592 1172.03 684.379C1179.25 640.166 1151.76 598.879 1110.62 592.162Z" fill="white"/>
<path d="M1319.87 513L1414.6 510.255L1541.08 670L1554.4 503H1665L1633.76 841H1541.08L1414.6 684L1406.41 841H1304L1319.87 513Z" fill="#2389D5"/>
<path d="M1319 498L1411.5 495.255L1535 655L1548 488H1656L1625.5 826H1535L1411.5 669L1403.5 826H1303.5L1319 498Z" fill="white"/>
<path d="M639 44C756.637 44 852 145.184 852 270C852 394.816 756.637 496 639 496C521.363 496 426 394.816 426 270C426 145.184 521.363 44 639 44ZM638.5 164C585.757 164 543 211.682 543 270.5C543 329.318 585.757 377 638.5 377C691.243 377 734 329.318 734 270.5C734 211.682 691.243 164 638.5 164Z" fill="url(#paint6_linear_6_130)"/>
<path d="M734.5 268.5C722.5 156.5 556.224 114.693 544.224 291.193C524.725 116.193 743.999 115.5 734.5 268.5Z" fill="url(#paint7_linear_6_130)"/>
<path d="M929 83.9402C929 83.9402 1307.09 17.5919 1297.83 246.394C1285.85 542.479 929.1 468.389 929 468.368V83.9402ZM1200.79 254.564C1205.22 128.386 1024.5 164.975 1024.5 164.975V376.976C1024.53 376.984 1195.07 417.854 1200.79 254.564Z" fill="url(#paint8_linear_6_130)"/>
<path d="M925 53.1623C925.148 53.1365 1313 -14.7928 1303.5 219.662C1291.2 523.162 925 447.162 925 447.162V53.1623ZM1203.92 228.035C1208.46 98.7627 1023.14 136.188 1023 136.215V353.495C1023 353.495 1198.04 395.407 1203.92 228.035Z" fill="url(#paint9_linear_6_130)"/>
<defs>
<linearGradient id="paint0_linear_6_130" x1="202.5" y1="55" x2="202.5" y2="513.211" gradientUnits="userSpaceOnUse">
<stop stop-color="#FEC536"/>
<stop offset="1" stop-color="#FD743E"/>
</linearGradient>
<linearGradient id="paint1_linear_6_130" x1="1526.5" y1="18" x2="1526.5" y2="450" gradientUnits="userSpaceOnUse">
<stop stop-color="#E14936"/>
</linearGradient>
<linearGradient id="paint2_linear_6_130" x1="1527.25" y1="0" x2="1527.25" y2="427" gradientUnits="userSpaceOnUse">
<stop stop-color="#FEC536"/>
<stop offset="1" stop-color="#FD743E"/>
</linearGradient>
<linearGradient id="paint3_linear_6_130" x1="767.293" y1="540.856" x2="784.956" y2="874.388" gradientUnits="userSpaceOnUse">
<stop stop-color="#2D8DDB"/>
</linearGradient>
<linearGradient id="paint4_linear_6_130" x1="766.936" y1="524.125" x2="784.945" y2="864.19" gradientUnits="userSpaceOnUse">
<stop stop-color="white"/>
</linearGradient>
<linearGradient id="paint5_linear_6_130" x1="1097.5" y1="514" x2="1097.5" y2="865" gradientUnits="userSpaceOnUse">
<stop stop-color="#237DD1"/>
</linearGradient>
<linearGradient id="paint6_linear_6_130" x1="639" y1="44" x2="639" y2="496" gradientUnits="userSpaceOnUse">
<stop stop-color="#FEC536"/>
<stop offset="1" stop-color="#FD743E"/>
</linearGradient>
<linearGradient id="paint7_linear_6_130" x1="639.262" y1="156" x2="639.262" y2="291.193" gradientUnits="userSpaceOnUse">
<stop stop-color="#DE4D26"/>
<stop offset="1" stop-color="#782A15"/>
</linearGradient>
<linearGradient id="paint8_linear_6_130" x1="1113.5" y1="75.0002" x2="1113.5" y2="476.625" gradientUnits="userSpaceOnUse">
<stop stop-color="#E22428"/>
</linearGradient>
<linearGradient id="paint9_linear_6_130" x1="1114.34" y1="44" x2="1114.34" y2="455.625" gradientUnits="userSpaceOnUse">
<stop stop-color="#FEC536"/>
<stop offset="1" stop-color="#FD743E"/>
</linearGradient>
</defs>
</svg>
